<svg xmlns="http://www.w3.org/2000/svg" fill="currentColor" width="379" height="66" viewBox="0 0 378.92 66.01" class="icon inline-block align-middle h-auto max-w-full" focusable="false"><path d="M338.52,64.57h20.83v-14.88h14.79v-16.5h-14.7c.54-6.22,5.68-10.91,12.08-10.91h7.39V1.44h-7.39c-18.4,0-33,14.61-33,32.91v30.21Zm-85.67-31.56c0-6.85,5.32-12.17,12.17-12.17s12.17,5.32,12.17,12.17-5.32,12.17-12.17,12.17-12.17-5.32-12.17-12.17Zm-84.59,.09c0,18.31,14.61,32.91,33,32.91,15.69,0,28.59-9.92,32.1-23.63,3.97,13.71,16.59,23.63,31.65,23.63s27.68-9.83,31.65-23.45c4.51,12.81,16.68,22,31.2,22h7.39v-20.92h-7.39c-6.85,0-12.17-5.23-12.17-12.08V1.44h-20.83V18.76c-5.32-11.18-16.59-18.76-29.85-18.76-15.24,0-27.95,10.1-31.83,24.08h-31.56v16.59h9.2c-2.34,2.71-5.68,4.51-9.56,4.51-6.85,0-12.17-5.32-12.17-12.17s5.32-12.17,12.17-12.17c1.8,0,3.61,.45,5.14,1.17l10.19-18.31c-4.6-2.43-9.74-3.7-15.33-3.7-18.4,0-33,14.61-33,33.09Zm-63.12,31.47h6.13c1.17,0,2.89-.9,4.06-2.07L173.77,4.42c1.53-1.44,1.53-2.98,0-2.98h-3.43l-59.7,59.43,.99-4.69L166.47,1.44h-6.31l-46.8,46.8,.9-4.33L156.19,1.44h-6.22l-33.91,34,.99-4.51L146.18,1.44h-4.15c-1.26,0-2.98,.81-4.15,1.98l-19.21,19.66,3.97-18.67c.36-1.71-.81-2.98-2.43-2.98h-1.71l-13.35,63.12Zm-7.57,0h4.87L115.79,1.44h-4.87l-13.35,63.12Zm-7.48,0h4.96L108.3,1.44h-4.87l-13.35,63.12Zm-6.85-2.98c-.36,1.71,.81,2.98,2.43,2.98h1.71L100.73,1.44h-1.98c-1.62,0-2.98,.99-3.34,2.71l-12.17,57.44Zm-12.17,2.98h1.98c1.62,0,2.98-.99,3.34-2.71L88.55,4.42c.36-1.71-.81-2.98-2.43-2.98h-1.71l-13.35,63.12Zm-15.06,0h4.96L74.21,1.44h-4.87l-13.35,63.12Zm-6.85-2.98c-.36,1.71,.81,2.98,2.43,2.98h1.71L66.64,1.44h-1.98c-1.62,0-2.98,.99-3.34,2.71l-12.17,57.44Zm-31.56-1.71l3.79,4.69h19.39c1.26,0,2.25-.9,2.52-2.07l.54-2.62H22.36l.63-2.8h21.37c.36-1.44,.72-3.07,.99-4.6H23.9l.63-2.8h21.46c.27-1.53,.63-3.07,.99-4.69H25.52l.54-2.71h21.46l.36-1.71c.36-1.53-.81-2.89-2.43-2.89H27.05L34.09,4.42c.36-1.71-.81-2.98-2.43-2.98h-1.71l-12.35,58.43Zm-5.95-7.57l3.79,4.78L27.23,1.44h-4.87L11.63,52.3Zm-5.95-7.57l3.88,4.87L19.75,1.44h-4.87L5.68,44.73ZM0,37.51l3.7,4.69L12.17,1.44h-1.98c-1.62,0-2.98,.99-3.34,2.71L0,37.51ZM81.7,1.44h-4.87l-13.35,63.12h4.87L81.7,1.44Z"></path></svg>