<?xml version="1.0" encoding="utf-8"?>
<!-- Generator: Adobe Illustrator 14.0.0, SVG Export Plug-In . SVG Version: 6.00 Build 43363)  -->
<!DOCTYPE svg PUBLIC "-//W3C//DTD SVG 1.1//EN" "http://www.w3.org/Graphics/SVG/1.1/DTD/svg11.dtd">
<svg version="1.1" id="Layer_1" xmlns="http://www.w3.org/2000/svg" xmlns:xlink="http://www.w3.org/1999/xlink" x="0px" y="0px"
	 width="186.084px" height="250px" viewBox="0 0 186.084 250" enable-background="new 0 0 186.084 250" xml:space="preserve">
<g>
	<path fill="#005288" d="M186.084,242.11c0,4.358-3.588,7.89-7.998,7.89H7.987C3.577,250,0,246.469,0,242.11V7.89
		C0,3.536,3.577,0,7.987,0h170.099c4.41,0,7.998,3.536,7.998,7.89V242.11"/>
	<path fill="#FFFFFF" d="M28.706,183.687c0,0.699,0,25.35,0,26.054c0.693,0,21.521,0,22.214,0c0-0.571,0-3.367,0-3.938
		c-0.699,0-18.303,0-18.303,0s0-21.407,0-22.116C32.047,183.687,29.266,183.687,28.706,183.687"/>
	<path fill="#FFFFFF" d="M95.163,183.687c-3.803,0-6.964,1.172-9.385,3.505c-2.421,2.323-3.639,5.423-3.639,9.227
		c0,3.834,1.233,7.041,3.685,9.555c2.457,2.498,5.598,3.768,9.344,3.768c0,0,11.495,0,12.185,0c0-0.679,0-13.358,0-14.042
		c-0.679,0-13.921,0-14.6,0c0,0.57,0,3.336,0,3.911c0.679,0,10.683,0,10.683,0v6.193h-8.268c-2.626,0-4.831-0.833-6.542-2.493
		c-1.712-1.66-2.58-3.85-2.58-6.501c0-2.673,0.868-4.909,2.58-6.61c1.711-1.711,3.916-2.575,6.542-2.575c0,0,11.558,0,12.246,0
		c0-0.575,0-3.366,0-3.937C106.726,183.687,95.163,183.687,95.163,183.687"/>
	<path fill="#FFFFFF" d="M54.374,183.687c0,0.699,0,25.35,0,26.054c0.57,0,3.346,0,3.911,0c0-0.663,0-7.546,0-7.546h10.439
		c2.883,0,5.31-0.812,7.2-2.426c2.036-1.722,3.063-4.009,3.063-6.811c0-2.826-1.027-5.113-3.058-6.81
		c-1.896-1.64-4.323-2.462-7.206-2.462C68.725,183.687,55.063,183.687,54.374,183.687 M58.285,187.623H69.47
		c1.608,0,2.986,0.474,4.086,1.414c1.126,0.956,1.691,2.261,1.691,3.88c0,1.614-0.565,2.93-1.687,3.917
		c-1.1,0.961-2.478,1.46-4.091,1.46H58.285V187.623z"/>
	<path fill="#FFFFFF" d="M122.813,185.763c0,0-0.134,0.231-0.144,0.252c0,0.005-11.298,22.708-11.801,23.726c0.873,0,4.04,0,4.399,0
		c0.195-0.386,3.516-7.067,3.516-7.067h13.096c0,0,3.27,6.65,3.454,7.036c0.36,0,3.413,0.021,4.287,0.031
		c-0.504-1.028-11.493-23.736-11.493-23.736c0.011,0.021-0.175-0.349-0.175-0.349c-0.411-0.823-1.027-2.077-2.549-2.077
		C123.954,183.578,123.214,184.997,122.813,185.763 M125.372,189.376l4.585,9.365h-9.231L125.372,189.376z"/>
	<path fill="#FFFFFF" d="M143.731,207.823c-0.359,0.385-0.812,0.57-1.347,0.57c-0.523,0-0.977-0.186-1.347-0.57
		c-0.38-0.376-0.555-0.833-0.555-1.367c0-0.535,0.185-0.992,0.555-1.362c0.37-0.381,0.823-0.565,1.347-0.565
		c0.535,0,0.987,0.185,1.347,0.565c0.381,0.37,0.565,0.827,0.565,1.362C144.297,206.99,144.112,207.442,143.731,207.823
		 M141.224,205.284c-0.318,0.318-0.483,0.714-0.483,1.172c0,0.467,0.165,0.857,0.473,1.182c0.319,0.329,0.71,0.493,1.172,0.493
		c0.453,0,0.844-0.164,1.162-0.493c0.318-0.324,0.483-0.715,0.483-1.182c0-0.458-0.165-0.854-0.483-1.172
		c-0.318-0.329-0.709-0.494-1.162-0.494C141.933,204.79,141.542,204.955,141.224,205.284z M142.344,205.392
		c0.257,0,0.452,0.025,0.576,0.072c0.216,0.092,0.318,0.272,0.318,0.539c0,0.19-0.062,0.324-0.205,0.417
		c-0.072,0.046-0.175,0.082-0.299,0.103c0.165,0.025,0.288,0.098,0.36,0.205c0.082,0.119,0.112,0.227,0.112,0.335v0.148
		c0,0.057,0,0.108,0.011,0.165c0,0.051,0.011,0.087,0.021,0.112l0.011,0.026h-0.35c0-0.011,0-0.016,0-0.021
		c0-0.011,0-0.016-0.011-0.031v-0.066v-0.17c0-0.247-0.072-0.401-0.205-0.483c-0.072-0.046-0.216-0.066-0.411-0.066h-0.288v0.838
		h-0.37v-2.123H142.344z M142.745,205.73c-0.093-0.056-0.236-0.082-0.442-0.082h-0.318v0.766h0.329c0.164,0,0.277-0.015,0.359-0.051
		c0.134-0.057,0.216-0.165,0.216-0.329C142.889,205.88,142.838,205.777,142.745,205.73z"/>
	<path fill-rule="evenodd" clip-rule="evenodd" fill="#FFFFFF" d="M101.01,121.14c0,0,2.981,29.923-4.461,52.447
		c0,0,3.31-21.47-1.699-40.738L101.01,121.14"/>
	<path fill="#EE3524" d="M96.425,101.866c-6.036,33.002-31.858,60.809-39.26,68.951c14.987-12.366,40.813-38.374,46.137-74.337
		c2.786-18.766,2.519-33.003-1.264-45.986l-7.415,1.455C99.2,65.234,100.156,81.415,96.425,101.866"/>
	<path fill-rule="evenodd" clip-rule="evenodd" fill="#FFC425" d="M69.829,75.828c13.343,10.3,7.885,20.287,4.935,25.848
		c-3.449,6.481-3.958,10.022-2.698,15.491c0.596,2.611,0.616,5.448-0.098,8.08c-1.301,4.77-4.158,8.758-4.158,8.758l0.093-0.093
		c0,0,10.146-7.108,8.64-16.596c-0.879-5.541,1.265-8.984,4.708-15.46c2.955-5.561,6.06-23.463-11.385-26.028H69.829"/>
	<path fill-rule="evenodd" clip-rule="evenodd" fill="#FFFFFF" d="M155.255,41.231c0,0-2.344-3.099-5.345-2.482L63.029,57.668
		c-0.19-0.272-0.529-0.468-1.161-0.329c-1.537,0.318-14.85,3.264-15.79,3.484c-0.936,0.227-0.123,3.167,0.627,3.002
		c0.745-0.154,14.515-3.218,15.784-3.485c0.71-0.154,0.91-0.56,0.936-0.971l81.314-17.578c2.241-0.504,3.731-0.046,5.612,2.282
		c1.162,1.455,2.643,4.513,2.643,4.513s0.349,0.833,1.161,0.55l4.308-1.485c0.843-0.319,0.473-0.977,0.473-0.977
		S157.126,43.56,155.255,41.231"/>
	<path fill-rule="evenodd" clip-rule="evenodd" fill="#54B948" d="M66.504,44.814c0.817-0.899,2.185-1.125,2.812-1.352
		c-1.717-1.67-6.579-2.596-9.38,2.888c-1.178,2.292-4.971,3.5-6.975,0.175c-0.288,1.336,0.909,7.35,7.139,6.06
		C64.628,51.65,63.883,47.086,66.504,44.814"/>
	<path fill-rule="evenodd" clip-rule="evenodd" fill="#FFFFFF" d="M86.39,41.591c1.146,0.992,0.406,1.686-0.021,2.544
		c-2.298,4.646,5.063,3.999,5.063,3.999l-1.429-1.449c-0.432-0.453-0.699-0.787-0.679-1.239c0.011-0.236,0.108-0.514,0.313-0.843
		c0.586-0.997,0.849-1.804,0.874-2.498c0.052-1.254-0.55-1.799-1.408-2.498l-0.123-0.124c5.653-2.097,5.957-7.664,5.957-7.664
		l-9.931-1.367c-3.017-3.721-6.6-4.631-11.965-2.446c-7.052,3.505-6.939,10.681-6.939,10.681s1.471-2.919,3.933-5.099
		c3.428-3.017,8.687-5.33,13.173,0.154c0,0,6.456,0.545,7.33,0.673c0,0-0.638,1.686-1.732,2.267
		c-3.095,1.629-5.818-0.046-7.797,0.268c-4.528,0.643-6.451,4.199-6.451,4.199S81.42,37.762,86.39,41.591"/>
	<path fill-rule="evenodd" clip-rule="evenodd" fill="#54B948" d="M42.717,64.756c-0.19-0.617-0.473-1.084-0.709-2.004
		c-0.483-1.943-0.272-3.058,1.172-3.408c0.509-0.134,1.619-0.396,2.534-0.591c1.311-0.277,2.292,0,2.734,1.835
		c1.279,5.258-1.049,3.552,1.778,7.869c2.832,4.333,6.183,9.468,6.183,9.468s2.791-2.359,3.654-5.598
		c0.776-2.924,2.375-10.146,13.02-9.868c0,0-4.749,3.572-7.088,11.513C63.086,83.871,54.04,86.637,54.04,86.637
		s-6.743-13.405-8.008-16.73C44.768,66.561,43.293,66.581,42.717,64.756"/>
	<polyline fill="#FFFFFF" points="104.535,169.742 104.535,170.148 103.405,170.148 103.405,173.129 102.942,173.129 
		102.942,170.148 101.822,170.148 101.822,169.742 104.535,169.742 	"/>
	<path fill="#FFFFFF" d="M104.937,169.742h0.647l0.956,2.862l0.956-2.862h0.647v3.387h-0.432v-1.999c0-0.072,0-0.18,0-0.345
		c0.011-0.154,0.011-0.329,0.011-0.509l-0.956,2.853h-0.452l-0.967-2.853v0.103c0,0.083,0.011,0.206,0.011,0.376
		c0,0.175,0.01,0.293,0.01,0.375v1.999h-0.432V169.742"/>
</g>
</svg>
